<svg width="48" height="48" viewBox="0 0 48 48" fill="none" xmlns="http://www.w3.org/2000/svg">
<g clip-path="url(#clip0_1_312)">
<path d="M19 13V19H13V13H19ZM22 10H10V22H22V10ZM19 29V35H13V29H19ZM22 26H10V38H22V26ZM35 13V19H29V13H35ZM38 10H26V22H38V10ZM26 26H29V29H26V26ZM29 29H32V32H29V29ZM32 26H35V29H32V26ZM26 32H29V35H26V32ZM29 35H32V38H29V35ZM32 32H35V35H32V32ZM35 29H38V32H35V29ZM35 35H38V38H35V35ZM44 14H40V8H34V4H44V14ZM44 44V34H40V40H34V44H44ZM4 44H14V40H8V34H4V44ZM4 4V14H8V8H14V4H4Z" fill="white"/>
</g>
<defs>
<clipPath id="clip0_1_312">
<rect width="48" height="48" fill="white"/>
</clipPath>
</defs>
</svg>
