<svg width="16" height="16" viewBox="0 0 16 16" fill="none" xmlns="http://www.w3.org/2000/svg">
<g clip-path="url(#clip0_5_321)">
<path d="M11.7667 4.23332C10.8 3.26666 9.47334 2.66666 8.00001 2.66666C5.05334 2.66666 2.67334 5.05332 2.67334 7.99999C2.67334 10.9467 5.05334 13.3333 8.00001 13.3333C10.4867 13.3333 12.56 11.6333 13.1533 9.33332H11.7667C11.22 10.8867 9.74001 12 8.00001 12C5.79334 12 4.00001 10.2067 4.00001 7.99999C4.00001 5.79332 5.79334 3.99999 8.00001 3.99999C9.10667 3.99999 10.0933 4.45999 10.8133 5.18666L8.66667 7.33332H13.3333V2.66666L11.7667 4.23332Z" fill="#F90909"/>
</g>
<defs>
<clipPath id="clip0_5_321">
<rect width="16" height="16" fill="white"/>
</clipPath>
</defs>
</svg>
