<svg width="28" height="28" viewBox="0 0 28 28" fill="none" xmlns="http://www.w3.org/2000/svg">
<g clip-path="url(#clip0_6_448)">
<path d="M26.8334 14L23.9867 10.745L24.3834 6.44L20.1717 5.48333L17.9667 1.75L14.0001 3.45333L10.0334 1.75L7.82841 5.47167L3.61675 6.41667L4.01341 10.7333L1.16675 14L4.01341 17.255L3.61675 21.5717L7.82841 22.5283L10.0334 26.25L14.0001 24.535L17.9667 26.2383L20.1717 22.5167L24.3834 21.56L23.9867 17.255L26.8334 14ZM11.7717 19.5067L7.33841 15.0617L9.06508 13.335L11.7717 16.0533L18.5967 9.205L20.3234 10.9317L11.7717 19.5067Z" fill="#00FF00"/>
</g>
<defs>
<clipPath id="clip0_6_448">
<rect width="28" height="28" fill="white"/>
</clipPath>
</defs>
</svg>
